<?xml version="1.0" encoding="UTF-8"?>
<svg xmlns="http://www.w3.org/2000/svg" xmlns:xlink="http://www.w3.org/1999/xlink" width="444px" height="250px" viewBox="0 0 444 250" version="1.1">
<g id="surface1">
<path style=" stroke:none;fill-rule:nonzero;fill:rgb(0%,0%,0%);fill-opacity:1;" d="M 208.207031 36.714844 C 196.949219 37.914062 187.421875 39.511719 184.753906 40.644531 C 183.089844 41.378906 181.625 42.644531 181.023438 43.777344 C 180.492188 44.777344 179.425781 51.574219 178.558594 58.835938 C 177.625 66.832031 176.695312 72.429688 176.160156 72.894531 C 175.695312 73.359375 173.761719 73.960938 171.898438 74.226562 C 167.632812 74.828125 158.90625 77.492188 153.441406 79.957031 C 146.578125 83.089844 145.644531 86.621094 150.710938 90.886719 C 155.171875 94.683594 160.371094 97.082031 166.234375 97.882812 C 169.164062 98.347656 173.097656 98.945312 174.894531 99.28125 C 194.148438 102.945312 253.582031 103.277344 277.167969 99.878906 C 279.566406 99.546875 284.5625 98.8125 288.359375 98.28125 C 292.15625 97.746094 296.621094 96.683594 298.289062 95.949219 C 302.550781 94.082031 307.480469 90.152344 308.882812 87.554688 C 310.015625 85.554688 310.015625 85.289062 308.949219 83.6875 C 308.28125 82.757812 306.683594 81.421875 305.285156 80.691406 C 301.886719 78.957031 288.828125 74.828125 285.027344 74.292969 C 283.296875 74.027344 281.429688 73.492188 280.898438 73.027344 C 280.230469 72.496094 279.433594 68.429688 278.300781 58.96875 C 277.367188 51.640625 276.300781 44.84375 275.835938 43.910156 C 274.167969 40.3125 269.636719 39.113281 249.714844 36.980469 C 239.257812 35.914062 217.335938 35.78125 208.207031 36.714844 Z M 208.207031 36.714844 "/>
<path style=" stroke:none;fill-rule:nonzero;fill:rgb(0%,0%,0%);fill-opacity:1;" d="M 270.902344 119.136719 C 270.703125 119.46875 265.242188 119.9375 258.710938 120.136719 C 252.183594 120.402344 243.71875 121.070312 239.855469 121.601562 C 230.996094 122.800781 223.398438 122.800781 214.539062 121.601562 C 204.476562 120.203125 184.554688 119.46875 184.554688 120.535156 C 184.554688 120.933594 183.757812 122.066406 182.824219 123.066406 C 181.15625 124.734375 181.15625 124.800781 181.824219 130.398438 C 183.023438 140.390625 186.886719 146.523438 193.152344 148.386719 C 198.082031 149.921875 208.207031 149.921875 213.339844 148.386719 C 216.871094 147.320312 217.402344 146.921875 219.136719 143.789062 C 220.269531 141.925781 221.667969 138.394531 222.265625 135.992188 C 223.597656 130.796875 224.730469 129.265625 227.195312 129.265625 C 229.660156 129.265625 230.929688 130.863281 232.195312 135.859375 C 233.460938 140.660156 235.058594 144.257812 237.058594 146.320312 C 238.988281 148.386719 244.519531 149.585938 251.847656 149.519531 C 260.710938 149.453125 264.640625 147.988281 267.90625 143.65625 C 270.4375 140.324219 272.503906 134.527344 272.503906 130.796875 C 272.503906 129.664062 272.902344 127.53125 273.4375 126.066406 C 274.300781 123.734375 274.300781 123.269531 273.4375 122.535156 C 272.902344 122.136719 272.503906 121.070312 272.503906 120.203125 C 272.503906 118.601562 271.570312 118.070312 270.902344 119.136719 Z M 270.902344 119.136719 "/>
<path style=" stroke:none;fill-rule:nonzero;fill:rgb(0%,0%,0%);fill-opacity:1;" d="M 213.207031 164.578125 C 208.074219 166.042969 203.945312 169.910156 200.8125 176.304688 C 199.082031 179.769531 198.878906 180.902344 198.878906 186.234375 C 198.945312 198.425781 203.746094 206.222656 214.203125 211.21875 C 222.199219 215.019531 230.460938 215.617188 238.058594 212.953125 C 246.984375 209.753906 252.78125 204.890625 255.578125 197.960938 C 257.113281 194.230469 257.378906 192.5625 257.445312 186.566406 C 257.511719 180.105469 257.378906 179.304688 255.644531 175.972656 C 254.582031 174.039062 252.382812 170.976562 250.714844 169.175781 C 246.320312 164.445312 244.253906 163.980469 228.195312 164.046875 C 220.867188 164.113281 214.136719 164.3125 213.207031 164.578125 Z M 244.984375 176.972656 C 246.917969 178.171875 249.183594 182.636719 249.183594 185.035156 C 249.183594 187.5 247.71875 189.5 245.253906 190.5 C 241.988281 191.898438 240.390625 191.230469 238.523438 187.699219 C 236.191406 183.234375 233.859375 181.902344 228.460938 181.902344 C 223.132812 181.902344 220.199219 183.570312 218.269531 187.566406 C 217.601562 189.03125 216.738281 190.433594 216.269531 190.699219 C 213.605469 192.429688 208.140625 189.566406 207.476562 186.101562 C 207.007812 183.769531 209.007812 178.769531 211.007812 177.105469 C 213.40625 175.105469 241.988281 174.972656 244.984375 176.972656 Z M 244.984375 176.972656 "/>
</g>
</svg>
